<svg width="20" height="19" viewBox="0 0 20 19" fill="none" xmlns="http://www.w3.org/2000/svg">
<path fill-rule="evenodd" clip-rule="evenodd" d="M10.5698 10.9679C10.3828 10.9891 10.1927 11 10 11C9.80733 11 9.61721 10.9891 9.43022 10.9679C9.58395 10.6227 9.77564 10.2981 10 9.99952C10.2244 10.2981 10.4161 10.6227 10.5698 10.9679ZM10.8863 11.935C10.5971 11.9778 10.3011 12 10 12C9.69886 12 9.4029 11.9778 9.11367 11.935C9.03922 12.2782 9 12.6345 9 13C9 14.1258 9.37209 15.1647 10 16.0005C10.6279 15.1647 11 14.1258 11 13C11 12.6345 10.9608 12.2782 10.8863 11.935ZM8.43594 10.7505C8.65554 10.2079 8.9522 9.70468 9.31237 9.2545C8.43032 8.47387 7.2705 8 6 8C5.80733 8 5.6172 8.0109 5.43021 8.03211C6.00026 9.31211 7.09231 10.3084 8.43594 10.7505ZM4.43594 8.2495C5.09643 9.88162 6.4542 11.1569 8.13988 11.7061C8.04828 12.1228 8 12.5558 8 13C8 14.4168 8.49111 15.719 9.31237 16.7455C8.43032 17.5261 7.2705 18 6 18C3.23858 18 1 15.7614 1 13C1 10.7848 2.44054 8.90609 4.43594 8.2495ZM4.13987 7.29392C4.04828 6.8772 4 6.44424 4 6C4 2.68629 6.68629 0 10 0C13.3137 0 16 2.68629 16 6C16 6.44424 15.9517 6.87719 15.8601 7.29392C18.2633 8.0768 20 10.3356 20 13C20 16.3137 17.3137 19 14 19C12.4633 19 11.0615 18.4223 10 17.4722C8.93849 18.4223 7.53671 19 6 19C2.68629 19 0 16.3137 0 13C0 10.3356 1.73671 8.0768 4.13987 7.29392ZM5.11367 7.06501C5.03922 6.72182 5 6.36549 5 6C5 3.23858 7.23858 1 10 1C12.7614 1 15 3.23858 15 6C15 6.36549 14.9608 6.72182 14.8863 7.06501C14.5971 7.02219 14.3011 7 14 7C12.4633 7 11.0615 7.57771 10 8.52779C8.93849 7.57771 7.53671 7 6 7C5.69886 7 5.4029 7.02219 5.11367 7.06501ZM14.5698 8.03211C14.3828 8.0109 14.1927 8 14 8C12.7295 8 11.5697 8.47387 10.6876 9.2545C11.0478 9.70468 11.3445 10.2079 11.5641 10.7505C12.9077 10.3084 13.9997 9.31211 14.5698 8.03211ZM15.5641 8.2495C14.9036 9.88162 13.5458 11.1569 11.8601 11.7061C11.9517 12.1228 12 12.5558 12 13C12 14.4168 11.5089 15.719 10.6876 16.7455C11.5697 17.5261 12.7295 18 14 18C16.7614 18 19 15.7614 19 13C19 10.7848 17.5595 8.90609 15.5641 8.2495Z" fill="white"/>
</svg>
