<svg width="20" height="20" viewBox="0 0 20 20" fill="none" xmlns="http://www.w3.org/2000/svg">
<path fill-rule="evenodd" clip-rule="evenodd" d="M9.98505 1C7.2875 1 4.7197 2.39718 3.01915 4.5H5.98506C6.2612 4.5 6.48506 4.72386 6.48506 5C6.48506 5.27614 6.2612 5.5 5.98506 5.5H2.04256H2.02757H1.98506C1.70892 5.5 1.48506 5.27614 1.48506 5V1C1.48506 0.723858 1.70892 0.5 1.98506 0.5C2.2612 0.5 2.48506 0.723858 2.48506 1V3.58106C4.35101 1.43286 7.07676 0 9.98505 0C15.2612 0 19.9851 4.72386 19.9851 10C19.9851 15.2761 15.2612 20 9.98505 20C4.88234 20 0.303063 15.5845 0.000906636 10.5298C-0.015571 10.2542 0.19453 10.0174 0.47018 10.0009C0.74583 9.98441 0.982647 10.1945 0.999125 10.4702C1.27036 15.0076 5.42232 19 9.98505 19C14.7089 19 18.9851 14.7239 18.9851 10C18.9851 5.27614 14.7089 1 9.98505 1ZM9.48505 6.03095C7.51189 6.277 5.98505 7.96019 5.98505 10C5.98505 12.2091 7.77591 14 9.98505 14C12.0249 14 13.7081 12.4732 13.9541 10.5H9.98506H9.98505C9.91601 10.5 9.85024 10.486 9.79042 10.4607C9.61097 10.3848 9.48505 10.2071 9.48505 10V6.03095ZM13.9541 9.5H10.485V6.03095C12.2944 6.25657 13.7285 7.69064 13.9541 9.5ZM14.985 10C14.985 12.7614 12.7465 15 9.98505 15C7.22362 15 4.98505 12.7614 4.98505 10C4.98505 7.23858 7.22362 5 9.98505 5C12.7465 5 14.985 7.23858 14.985 10Z" fill="white"/>
</svg>
